<?xml version="1.0" encoding="UTF-8" standalone="no"?>
<!DOCTYPE svg PUBLIC "-//W3C//DTD SVG 1.1//EN" "http://www.w3.org/Graphics/SVG/1.1/DTD/svg11.dtd">
<svg width="100%" height="100%" viewBox="0 0 4134 4134" version="1.1" xmlns="http://www.w3.org/2000/svg" xmlns:xlink="http://www.w3.org/1999/xlink" xml:space="preserve" xmlns:serif="http://www.serif.com/" style="fill-rule:evenodd;clip-rule:evenodd;stroke-linejoin:round;stroke-miterlimit:2;">
    <path d="M4133.86,714.979C4133.86,320.371 3813.49,0 3418.88,0L714.979,0C320.371,0 0,320.371 0,714.979L0,3418.88C0,3813.49 320.371,4133.86 714.979,4133.86L3418.88,4133.86C3813.49,4133.86 4133.86,3813.49 4133.86,3418.88L4133.86,714.979Z" style="fill:white;"/>
    <g transform="matrix(203.646,0,0,203.646,-36056,-2503.43)">
        <path d="M188.434,14.994L185.97,14.994L179.462,29.892L181.156,29.892C181.344,29.892 181.529,29.864 181.712,29.808C181.896,29.753 182.068,29.675 182.228,29.575C182.387,29.474 182.529,29.354 182.654,29.216C182.779,29.077 182.875,28.925 182.945,28.758L183.818,26.742L183.82,26.742L185.395,23.115L185.409,23.115L187.202,18.953L189.38,24.007L188.143,24.007C187.217,24.007 186.379,24.557 186.011,25.406L185.431,26.742L190.586,26.742L191.47,28.758C191.629,29.112 191.868,29.389 192.187,29.59C192.506,29.791 192.859,29.892 193.247,29.892L194.942,29.892L188.434,14.994Z" style="fill-rule:nonzero;"/>
    </g>
</svg>
